# xmcd CD database file
#
# Track frame offsets:
#	150
#	29227
#	55790
#	83086
#	122332
#	156391
#	185609
#	216848
#	245373
#	249971
#
# Disc length: 3722 seconds
#
# Revision: 0
# Processed by: cddbd v1.5.2PL0 Copyright (c) Steve Scherf et al.
# Submitted via: CDex 1.70beta2
#
DISCID=840e880a
DTITLE=Jai Ma - Regleela
DYEAR=2007
DGENRE=New Age
TTITLE0=Over the Montain
TTITLE1=Nightwalk
TTITLE2=Jai Ma
TTITLE3=Return of the Prophet
TTITLE4=Caravanserai
TTITLE5=Sansonica
TTITLE6=View of the Green Valey
TTITLE7=Camp in town
TTITLE8=Silencium
TTITLE9=Juboh
EXTD=YEAR: 2007
EXTT0=
EXTT1=
EXTT2=
EXTT3=
EXTT4=
EXTT5=
EXTT6=
EXTT7=
EXTT8=
EXTT9=
PLAYORDER=
